<?xml version="1.0" standalone="no"?>
<!DOCTYPE svg PUBLIC "-//W3C//DTD SVG 20010904//EN"
 "http://www.w3.org/TR/2001/REC-SVG-20010904/DTD/svg10.dtd">
<svg version="1.0" xmlns="http://www.w3.org/2000/svg"
 width="300.000000pt" height="300.000000pt" viewBox="0 0 300.000000 300.000000"
 preserveAspectRatio="xMidYMid meet">
<metadata>
Created by potrace 1.11, written by Peter Selinger 2001-2013
</metadata>
<g transform="translate(0.000000,300.000000) scale(0.100000,-0.100000)"
fill="#000000" stroke="none">
<path d="M1179 2466 c-2 -2 -19 -6 -38 -8 -54 -6 -48 -25 9 -27 27 -1 50 2 50
6 0 12 -16 34 -21 29z"/>
<path d="M1332 2455 c-7 -8 -8 -15 -3 -15 5 0 13 5 16 10 10 16 25 12 19 -5
-5 -12 4 -15 49 -15 31 0 59 5 62 10 3 6 -1 10 -9 10 -9 0 -16 5 -16 11 0 8
-4 8 -13 1 -8 -7 -18 -7 -27 -2 -22 14 -63 11 -78 -5z"/>
<path d="M1637 2463 c-4 -3 -17 -7 -29 -8 -12 -1 -23 -6 -25 -12 -2 -6 38 -12
109 -16 62 -2 122 -8 133 -12 16 -7 18 -6 8 6 -7 7 -14 22 -14 34 -1 14 -3 15
-6 4 -4 -17 -68 -25 -77 -10 -3 5 -16 6 -30 4 -13 -3 -27 0 -30 6 -8 12 -29
15 -39 4z"/>
<path d="M2330 2460 c-9 -5 -10 -17 -5 -36 11 -44 18 -134 10 -134 -19 0 -137
95 -145 116 -5 13 -15 24 -21 24 -8 0 -7 -5 2 -16 11 -13 10 -15 -6 -12 -26 4
-30 -18 -6 -32 19 -9 101 -120 101 -135 0 -4 -24 -3 -54 0 -47 6 -58 4 -77
-13 -20 -19 -24 -20 -50 -6 -28 14 -38 8 -20 -11 21 -23 36 -141 30 -231 -4
-71 -12 -104 -33 -148 -30 -61 -99 -129 -152 -148 -19 -7 -34 -14 -34 -18 0
-3 20 -13 45 -24 56 -23 138 -95 170 -150 34 -58 57 -175 50 -255 -10 -111
-50 -208 -117 -282 -35 -39 -105 -82 -123 -75 -9 3 -13 2 -10 -4 3 -6 -2 -10
-13 -10 -10 0 -22 -3 -25 -7 -4 -3 -22 -8 -39 -10 -102 -12 -173 -20 -174 -19
-1 0 -22 62 -46 136 l-45 135 51 6 c59 7 89 20 129 57 74 69 69 243 -8 311
-43 38 -107 51 -245 51 l-110 0 0 -214 0 -213 50 2 c32 1 50 -2 50 -10 0 -26
-48 -150 -56 -145 -5 3 -8 9 -6 13 1 5 -2 6 -8 2 -13 -8 -13 -11 4 -28 9 -9
11 -19 5 -28 -7 -12 -9 -12 -9 0 0 16 -106 131 -114 124 -2 -3 -14 0 -25 7
-34 18 -24 7 30 -34 34 -26 47 -42 40 -49 -7 -7 -16 -6 -28 4 -15 11 -14 9 2
-9 11 -14 21 -19 23 -12 3 7 11 5 24 -7 11 -10 23 -17 27 -15 3 1 6 -1 6 -5 0
-5 3 -13 7 -18 3 -6 4 -22 1 -36 -5 -25 -5 -26 -91 -23 -120 3 -141 5 -119 11
9 2 17 12 17 21 0 13 2 13 14 -3 13 -18 14 -18 25 3 7 13 17 20 23 16 7 -4 6
-9 -3 -15 -8 -5 -9 -9 -4 -10 6 0 24 -2 40 -4 l30 -4 -30 22 c-16 12 -34 22
-40 22 -5 0 -11 3 -13 7 -4 9 -124 128 -128 128 -10 0 -1 -12 34 -44 20 -20
32 -36 26 -36 -6 0 -17 7 -24 15 -7 8 -17 12 -24 8 -6 -3 -8 -3 -4 2 9 9 -9
35 -24 35 -6 0 -4 -7 3 -17 13 -15 12 -15 -9 -4 -18 10 -23 9 -28 -4 -3 -8
-11 -15 -17 -15 -6 0 -7 3 -4 7 4 3 2 12 -4 20 -9 9 -8 13 0 13 6 0 11 -5 11
-12 0 -8 6 -6 16 4 18 17 13 48 -7 48 -8 0 -8 -4 1 -15 10 -13 9 -15 -9 -15
l-21 0 2 316 3 316 155 90 c190 110 180 106 180 74 l0 -26 90 0 c207 0 279 53
280 206 l0 62 66 41 c36 22 67 41 69 41 3 0 42 22 89 50 l85 50 -30 29 c-16
16 -29 35 -28 43 0 7 7 3 16 -9 8 -13 24 -23 34 -23 11 0 19 -5 19 -10 0 -6 8
-5 19 2 25 15 16 31 -11 22 -16 -5 -20 -3 -15 9 3 9 -9 29 -33 52 -26 25 -39
33 -43 23 -3 -8 -9 -2 -17 17 -11 24 -14 26 -17 12 -3 -10 3 -27 13 -38 15
-16 16 -22 5 -28 -8 -5 -11 -17 -6 -30 7 -24 -10 -29 -19 -6 -7 19 -14 16
-168 -73 -112 -64 -129 -71 -153 -62 -14 5 -76 10 -136 10 l-109 0 0 -88 0
-88 -167 -97 -168 -97 -5 142 c-5 113 -11 157 -28 208 -29 82 -103 240 -113
240 -4 0 3 -21 16 -47 l23 -48 -22 -23 c-15 -15 -42 -26 -85 -33 -35 -5 -66
-8 -69 -5 -2 3 10 29 29 57 18 29 34 58 35 65 3 18 -34 3 -88 -36 -41 -30 -43
-31 -46 -11 -3 17 -6 19 -23 8 -10 -6 -19 -20 -19 -30 0 -10 -4 -16 -8 -13 -5
3 -4 -20 1 -51 11 -64 2 -90 -61 -176 -47 -64 -66 -113 -47 -121 9 -3 12 -18
8 -48 -5 -45 -41 -159 -53 -168 -19 -14 -27 -43 -16 -66 6 -13 14 -24 18 -24
21 0 38 -64 38 -144 0 -75 3 -88 22 -106 35 -33 66 -26 115 27 24 25 46 58 49
72 14 66 20 64 33 -7 8 -43 19 -75 28 -80 11 -7 13 -14 5 -28 -6 -10 -16 -50
-22 -89 -7 -38 -17 -80 -21 -93 l-9 -23 -31 23 c-56 41 -86 114 -65 159 5 12
0 14 -27 11 -28 -3 -44 3 -81 32 -52 40 -76 45 -76 18 0 -21 30 -48 90 -82 39
-22 45 -30 43 -55 -2 -20 1 -25 6 -16 6 9 14 -4 26 -43 10 -31 15 -59 11 -63
-3 -3 -6 1 -6 10 0 10 -5 17 -10 17 -6 0 -8 -11 -4 -25 7 -29 3 -30 -36 -10
-33 17 -40 30 -12 21 23 -8 55 25 46 47 -7 20 -44 33 -53 18 -9 -14 -48 -3
-56 17 -6 15 -8 15 -15 -3 -4 -11 -3 -26 3 -33 7 -9 5 -11 -9 -5 -16 6 -17 4
-7 -8 7 -9 8 -20 3 -28 -4 -8 -6 -26 -3 -40 3 -14 6 -32 6 -38 1 -20 15 -15
22 7 7 23 25 27 25 6 0 -8 3 -21 6 -29 4 -10 -1 -15 -13 -14 -9 1 -18 -4 -18
-11 0 -7 -6 -16 -14 -21 -10 -7 -11 -13 -2 -29 6 -11 11 -40 11 -64 0 -56 13
-77 37 -62 17 11 37 104 22 104 -4 0 -9 8 -12 18 -2 9 -8 25 -12 34 -4 11 -3
18 4 18 6 0 11 -7 11 -16 0 -14 2 -14 17 1 12 13 24 15 47 9 17 -4 46 -8 64
-8 18 -1 32 -6 32 -13 0 -7 4 -13 9 -13 5 0 12 -8 15 -18 4 -11 17 -25 31 -32
13 -7 22 -18 18 -23 -3 -6 -12 -2 -19 8 -8 10 -17 15 -21 12 -4 -4 -1 -13 5
-19 7 -7 12 -43 12 -88 0 -75 0 -76 -25 -75 -15 0 -40 14 -60 34 -42 41 -56
36 -20 -7 33 -40 32 -52 -3 -21 l-27 24 23 -26 c25 -29 57 -35 47 -10 -5 12
-3 13 6 4 13 -13 3 -37 -12 -28 -5 4 -9 3 -9 0 0 -3 15 -12 33 -20 28 -12 29
-14 9 -15 -21 0 -64 32 -176 132 -18 16 -20 16 -52 -9 -19 -14 -34 -27 -34
-29 0 -3 28 -23 63 -45 34 -23 54 -38 45 -35 -24 7 -23 -11 2 -69 31 -73 77
-132 123 -159 106 -62 302 -72 544 -27 23 5 40 4 37 0 -3 -5 0 -9 7 -9 7 0 9
8 6 21 -5 20 -5 20 13 4 10 -9 24 -14 29 -10 14 8 14 -14 0 -54 -6 -18 -9 -34
-7 -36 2 -3 34 16 71 42 63 44 66 47 50 65 -21 24 -12 23 16 -1 17 -15 29 -17
58 -11 20 5 42 6 47 2 6 -3 6 1 -1 9 -9 11 -7 14 14 16 19 1 22 -1 12 -8 -11
-7 -11 -9 4 -9 9 0 17 -4 17 -10 0 -5 6 -10 14 -10 8 0 16 -7 20 -15 3 -8 12
-15 20 -15 7 0 17 -7 20 -16 4 -9 9 -14 13 -10 3 3 12 -3 20 -14 15 -22 33
-27 33 -9 0 5 -5 7 -11 3 -8 -4 -9 1 -4 16 5 16 4 20 -4 15 -8 -5 -10 1 -5 19
5 22 4 25 -12 19 -16 -6 -17 -5 -4 9 9 10 19 13 26 7 6 -5 19 -3 31 6 19 13
22 13 27 -1 7 -19 61 -10 84 13 8 8 21 12 29 9 8 -3 17 -6 19 -6 2 0 1 -12 -2
-27 -6 -22 -4 -25 10 -20 9 4 16 3 16 -2 0 -13 52 -20 71 -11 9 6 20 5 26 -1
5 -5 20 -12 34 -15 43 -10 267 -17 286 -9 10 5 23 7 29 6 6 0 33 13 59 31 54
37 107 128 119 202 4 22 9 51 11 63 2 15 -3 24 -16 28 -10 4 -19 11 -19 16 0
5 -21 -2 -46 -17 -37 -22 -63 -28 -125 -32 l-79 -5 0 36 c0 19 6 38 13 40 10
4 10 6 0 6 -9 1 -13 22 -13 70 l0 70 -90 47 c-49 26 -90 51 -90 55 0 18 63 31
125 25 192 -18 186 -18 245 11 59 30 74 58 45 79 -15 11 -26 9 -67 -12 -28
-14 -52 -23 -55 -20 -7 7 14 88 39 147 11 27 31 52 48 63 17 9 30 23 30 31 0
16 -47 55 -66 55 -8 0 -23 9 -34 20 -11 11 -20 16 -20 11 0 -5 -10 -7 -22 -3
-22 5 -22 4 -7 -14 69 -81 64 -147 -20 -228 -45 -44 -43 -46 -61 54 -6 36 -13
73 -15 84 -2 10 3 59 11 108 12 73 12 93 2 107 -11 14 -11 14 3 4 9 -7 18 -11
20 -9 2 2 15 -11 29 -28 13 -17 17 -25 7 -17 -12 10 -17 10 -17 2 0 -18 19
-51 30 -51 19 0 20 39 1 83 -11 25 -25 83 -31 129 -6 46 -12 93 -14 106 -2 12
1 22 5 22 5 0 9 -6 9 -14 0 -8 29 -39 64 -68 35 -29 71 -65 80 -80 22 -37 22
-126 -1 -144 -16 -12 -16 -15 -3 -24 31 -20 37 -10 43 66 6 75 7 78 51 123 49
50 53 62 32 100 l-13 24 -13 -22 c-6 -13 -14 -20 -17 -17 -17 16 -59 136 -56
156 2 13 19 53 38 89 28 51 35 77 35 121 1 66 8 57 45 -56 31 -90 40 -105 62
-97 12 5 14 17 10 57 -8 80 -38 197 -48 190 -5 -3 -9 8 -9 24 0 18 -13 43 -35
69 -19 23 -35 46 -35 51 0 17 -101 102 -150 127 -28 14 -51 20 -60 15z m89
-113 c59 -78 81 -132 81 -203 0 -62 -15 -124 -30 -124 -5 0 -28 26 -50 58
l-42 57 6 80 c5 58 2 94 -9 130 -18 60 -17 55 -5 55 5 0 27 -24 49 -53z
m-1569 -174 c-50 -65 -114 -122 -169 -152 -32 -17 -62 -31 -65 -31 -4 0 -6 19
-4 43 4 87 61 137 155 137 26 1 59 7 73 15 34 19 34 19 10 -12z m1316 12 c16
-8 52 -15 79 -15 86 0 136 -46 151 -139 5 -30 3 -41 -6 -41 -15 0 -117 56
-144 79 -24 21 -119 131 -113 131 3 0 18 -7 33 -15z m-1445 -273 c-34 -83 -81
-148 -128 -179 -31 -21 -34 -21 -41 -5 -4 9 -7 43 -7 76 0 54 2 60 34 87 19
16 56 36 82 44 26 9 55 25 64 35 10 11 20 19 22 17 2 -2 -10 -36 -26 -75z
m1552 64 c3 -8 27 -22 54 -32 26 -9 67 -30 90 -45 23 -15 43 -23 45 -18 2 5 3
-19 2 -53 0 -68 -11 -118 -24 -118 -17 0 -109 98 -129 138 -34 66 -61 142 -52
142 5 0 11 -6 14 -14z m-78 -66 c10 -11 16 -20 13 -20 -3 0 -13 9 -23 20 -10
11 -16 20 -13 20 3 0 13 -9 23 -20z m-1489 -172 c-3 -13 -8 -54 -11 -91 -8
-87 -46 -187 -83 -221 -19 -16 -21 -16 -41 13 -12 16 -26 53 -31 81 -13 68 1
94 85 162 36 28 65 58 65 65 0 7 5 13 10 13 6 0 8 -10 6 -22z m1546 -266 c7
-9 1 -7 -14 6 -18 17 -24 30 -20 45 5 20 6 20 13 -6 4 -16 13 -36 21 -45z
m-802 -7 c-10 -12 -10 -15 0 -15 8 0 11 -3 7 -6 -3 -3 -11 -3 -17 1 -8 5 -8
11 1 21 6 8 14 14 16 14 3 0 0 -7 -7 -15z m-645 -95 c3 -5 1 -10 -4 -10 -6 0
-11 5 -11 10 0 6 2 10 4 10 3 0 8 -4 11 -10z m869 -165 c-7 -16 -24 -21 -24
-6 0 8 7 13 27 20 1 1 0 -6 -3 -14z m-1144 -40 c0 -7 -30 -13 -34 -7 -3 4 4 9
15 9 10 1 19 0 19 -2z m90 -61 c0 -8 -5 -12 -10 -9 -6 4 -8 11 -5 16 9 14 15
11 15 -7z m-80 -64 c0 -5 -4 -10 -10 -10 -5 0 -10 5 -10 10 0 6 5 10 10 10 6
0 10 -4 10 -10z m262 -30 c18 0 6 19 -14 23 -13 2 -1 5 25 6 30 0 60 -6 77
-16 l28 -16 -36 -19 c-20 -10 -40 -18 -45 -18 -5 0 -20 -9 -34 -20 -24 -19
-27 -19 -44 -4 -18 16 -17 34 1 34 5 0 15 -7 24 -15 13 -14 16 -13 26 5 9 16
8 18 -5 14 -8 -4 -22 0 -31 7 -13 10 -17 10 -24 0 -6 -11 -10 -9 -19 7 -6 11
-11 23 -11 26 0 11 37 11 55 -1 11 -7 23 -13 27 -13z m728 -72 c26 -88 51
-160 60 -171 3 -4 61 -8 129 -8 l122 -1 -40 -30 c-23 -16 -46 -26 -52 -22 -7
4 -9 3 -6 -3 4 -6 -13 -24 -38 -42 -26 -18 -46 -27 -50 -21 -3 5 -16 10 -28 9
l-22 0 23 -9 c12 -5 22 -11 22 -13 0 -8 -36 -4 -48 6 -7 5 -15 7 -18 4 -3 -3
-21 1 -39 9 -44 18 -50 18 -35 -1 7 -8 8 -15 4 -15 -15 0 -35 38 -22 42 18 6
-21 38 -40 32 -14 -5 -14 -3 2 6 18 12 17 13 -7 34 l-25 21 40 123 c22 67 42
122 44 122 2 0 13 -33 24 -72z m-610 -19 l0 -51 -32 7 c-18 4 -37 12 -43 18
-7 7 -6 8 3 3 22 -13 58 2 59 23 1 12 -3 24 -9 27 -7 5 -8 2 -4 -5 5 -7 0 -18
-10 -26 -11 -8 -21 -9 -25 -4 -3 5 -13 7 -22 3 -9 -3 -15 -10 -12 -14 3 -5 -4
-6 -15 -3 -17 4 -8 12 42 39 35 18 64 33 66 33 1 1 2 -22 2 -50z m1232 17 l66
-34 -69 -20 -69 -20 0 54 c0 30 1 54 3 54 2 0 33 -15 69 -34z m-1022 4 c0 -5
-4 -10 -10 -10 -5 0 -10 5 -10 10 0 6 5 10 10 10 6 0 10 -4 10 -10z m-26 -35
c5 0 11 -7 13 -15 3 -9 1 -11 -4 -5 -4 6 -14 10 -20 11 -27 2 -31 4 -37 19 -5
13 -2 14 17 3 12 -7 26 -12 31 -13z m92 -3 c9 -15 8 -18 -7 -18 -9 0 -15 4
-12 9 3 5 -1 13 -8 18 -12 7 -11 9 1 9 8 0 20 -8 26 -18z m-138 -22 c3 -8 0
-10 -8 -5 -7 4 -16 2 -21 -6 -7 -11 -9 -11 -9 2 0 30 29 38 38 9z m82 -12 c0
-7 -12 -19 -27 -25 -43 -21 -49 -15 -12 11 41 30 39 29 39 14z m-360 -7 c0 -5
6 -9 13 -8 35 1 57 -4 57 -14 0 -5 -4 -8 -9 -4 -13 7 -24 -12 -15 -26 4 -8 9
-8 17 0 17 17 31 13 16 -5 -10 -13 -10 -17 0 -24 11 -6 9 -10 -6 -18 -14 -8
-23 -8 -31 0 -7 7 -15 8 -19 4 -4 -4 -3 -10 3 -14 15 -10 11 -89 -5 -104 -11
-11 -12 -9 -6 10 4 13 2 22 -4 22 -6 0 -11 -9 -11 -21 0 -11 -4 -18 -10 -14
-6 4 -5 15 2 30 6 13 15 22 19 19 5 -3 9 4 9 16 0 12 -4 19 -9 15 -5 -3 -13 0
-17 6 -4 8 -3 9 4 5 7 -4 12 -3 12 3 0 5 -4 13 -10 16 -15 9 -12 45 3 45 7 0
23 -9 35 -20 11 -11 23 -16 26 -12 6 9 -29 42 -44 42 -6 0 -10 6 -10 14 0 8
-7 16 -15 20 -17 6 -21 26 -5 26 6 0 10 -4 10 -9z m1460 -86 c0 -88 -1 -95
-18 -86 -20 11 -92 10 -92 -1 0 -4 -11 -3 -24 2 -13 5 -27 6 -32 2 -4 -4 -4
-1 0 6 4 7 11 10 16 7 5 -3 16 5 26 17 14 19 15 20 10 4 -7 -19 -6 -19 12 -3
10 9 22 14 25 10 4 -3 7 2 7 12 0 13 3 15 13 7 10 -8 13 -6 13 9 0 10 -6 19
-12 19 -7 0 -26 11 -42 25 -22 18 -32 21 -40 13 -9 -9 -12 -9 -12 -1 0 7 26
19 58 28 31 9 62 18 67 20 6 2 13 4 18 4 4 1 7 -42 7 -94z m-1313 50 c15 -4
20 -11 16 -22 -5 -13 -2 -15 11 -10 10 4 26 1 37 -7 18 -12 18 -14 3 -20 -9
-4 -19 -4 -22 -1 -3 3 0 5 7 5 7 0 10 4 7 9 -3 5 -15 7 -26 4 -13 -3 -22 1
-26 11 -4 9 -21 23 -38 31 -29 14 -17 14 31 0z m939 -4 c-7 -11 -108 -62 -113
-57 -4 4 98 65 110 65 5 1 6 -3 3 -8z m198 -20 c-5 -5 -20 -12 -34 -16 -23 -6
-23 -5 5 14 28 19 49 21 29 2z m-4 -33 c0 10 5 10 20 2 24 -13 26 -38 4 -47
-18 -7 -29 3 -39 37 -5 19 -4 21 4 10 8 -11 11 -11 11 -2z m-45 -7 c3 -5 -2
-17 -11 -26 -12 -12 -19 -13 -30 -4 -11 9 -14 9 -14 0 0 -7 -4 -10 -9 -6 -6 3
-15 -4 -21 -15 -6 -11 -7 -20 -3 -21 13 -2 -40 -17 -62 -18 -12 -1 7 18 50 49
70 50 89 58 100 41z m-1074 -18 c13 -16 12 -17 -3 -4 -10 7 -18 15 -18 17 0 8
8 3 21 -13z m480 0 c12 -15 12 -16 -6 -11 -27 7 -46 -13 -33 -35 13 -25 31
-22 18 3 -12 23 -5 26 15 6 12 -11 11 -17 -6 -35 -22 -23 -35 -26 -44 -10 -5
6 -12 4 -20 -8 -11 -15 -15 -15 -29 -4 -9 8 -14 16 -11 19 2 3 12 -1 22 -9 13
-11 13 -6 -4 21 -12 20 -19 41 -15 47 5 9 12 6 21 -8 7 -12 8 -18 2 -14 -17
10 -13 -11 4 -25 12 -10 15 -10 15 0 0 10 3 10 15 0 23 -19 18 1 -7 28 -13 14
-17 22 -10 18 21 -12 35 5 15 20 -16 12 -15 13 13 14 18 0 38 -7 45 -17z
m-691 -25 c0 -6 -7 -5 -15 2 -8 7 -15 17 -15 22 0 6 7 5 15 -2 8 -7 15 -17 15
-22z m209 -6 c7 -7 10 -16 7 -19 -4 -4 -13 3 -22 15 -16 23 -41 31 -28 10 5
-9 2 -9 -9 1 -18 15 -23 26 -7 16 6 -3 10 -1 10 6 0 11 16 2 49 -29z m286 18
c3 -6 -1 -7 -9 -4 -18 7 -21 14 -7 14 6 0 13 -4 16 -10z m-313 -39 c3 8 7 4
10 -9 8 -29 -3 -28 -32 3 -27 28 -50 34 -29 8 13 -16 12 -17 -3 -5 -9 8 -14
20 -11 28 4 12 11 10 33 -11 19 -19 29 -23 32 -14z m926 0 c-1 -16 4 -36 11
-45 7 -9 9 -16 3 -16 -19 0 -30 25 -25 58 6 40 16 43 11 3z m201 15 c9 -11 6
-12 -15 -8 -19 3 -22 7 -12 13 16 11 14 11 27 -5z m-979 -6 c0 -5 -2 -10 -4
-10 -3 0 -8 5 -11 10 -3 6 -1 10 4 10 6 0 11 -4 11 -10z m-74 -45 c4 -14 4
-29 0 -32 -3 -4 -6 3 -6 15 0 12 -4 22 -10 22 -5 0 -10 5 -10 10 0 21 20 9 26
-15z m-97 -6 c-16 -10 -23 -4 -14 10 3 6 11 8 17 5 6 -4 5 -9 -3 -15z m1273 4
c-6 -2 -10 -9 -6 -14 3 -5 0 -9 -5 -9 -12 0 -14 13 -4 23 3 4 11 7 17 6 6 0 5
-3 -2 -6z m-1201 -20 c13 -16 12 -17 -3 -4 -10 7 -18 15 -18 17 0 8 8 3 21
-13z m917 -22 c23 -7 42 -14 42 -16 0 -6 -74 7 -95 18 -16 7 -17 7 -9 -3 13
-13 166 -59 199 -60 15 0 17 -2 6 -9 -8 -5 -36 -3 -68 6 -31 8 -62 12 -70 9
-8 -3 -11 -1 -8 4 3 6 3 10 -2 10 -4 0 -19 3 -33 7 -24 6 -24 5 5 -18 17 -13
39 -32 49 -41 11 -10 27 -18 35 -18 12 0 9 6 -9 21 l-25 21 32 -18 c23 -12 29
-21 20 -26 -18 -11 -59 -10 -52 2 6 9 -9 15 -30 10 -5 -1 -15 7 -22 16 -13 17
-15 17 -39 -9 -31 -33 -38 -34 -52 -2 -13 29 -15 42 -6 32 11 -10 45 13 38 25
-4 6 -3 8 4 4 6 -3 13 -2 16 3 11 18 -15 23 -33 7 -19 -18 -41 -21 -41 -7 0 5
17 23 38 39 31 26 39 28 52 17 8 -7 34 -18 58 -24z m-1033 13 c17 -12 18 -16
5 -24 -19 -12 -51 6 -44 25 7 19 14 18 39 -1z m-15 -51 c0 -2 -8 1 -17 6 -28
17 -53 38 -53 45 0 4 16 -5 35 -20 19 -14 35 -28 35 -31z m1290 42 c7 -8 8
-15 2 -15 -5 0 -15 7 -22 15 -7 8 -8 15 -2 15 5 0 15 -7 22 -15z m-810 1 c0
-2 -7 -7 -16 -10 -8 -3 -12 -2 -9 4 6 10 25 14 25 6z m235 -6 c3 -5 1 -10 -4
-10 -6 0 -11 5 -11 10 0 6 2 10 4 10 3 0 8 -4 11 -10z m-531 -21 c-3 -5 -10
-7 -15 -3 -5 3 -7 10 -3 15 3 5 10 7 15 3 5 -3 7 -10 3 -15z m626 11 c0 -5 -4
-10 -10 -10 -5 0 -10 5 -10 10 0 6 5 10 10 10 6 0 10 -4 10 -10z m-679 -17
c13 -16 12 -17 -3 -4 -10 7 -18 15 -18 17 0 8 8 3 21 -13z m92 10 c-10 -3 -10
-10 -2 -24 5 -11 14 -17 18 -15 5 3 16 -3 26 -14 10 -11 24 -16 33 -13 10 4
13 2 8 -5 -10 -17 -22 -15 -42 6 -17 16 -18 16 -11 0 3 -10 2 -18 -3 -18 -6 0
-10 7 -10 16 0 10 -6 14 -14 11 -10 -4 -13 -1 -9 9 3 7 1 14 -5 14 -6 0 -12
-5 -14 -12 -3 -7 -10 -8 -17 -4 -9 6 -7 14 10 32 12 13 27 24 33 23 6 0 5 -3
-1 -6z m462 -3 c3 -5 1 -10 -4 -10 -6 0 -11 5 -11 10 0 6 2 10 4 10 3 0 8 -4
11 -10z m-652 -25 c-3 -9 -8 -14 -10 -11 -3 3 -2 9 2 15 9 16 15 13 8 -4z
m677 -24 c0 -3 -5 -13 -11 -21 -9 -13 -10 -13 -6 1 3 9 0 22 -6 28 -9 9 -8 11
6 6 9 -4 17 -10 17 -14z m116 -16 c-3 -8 0 -15 6 -15 6 0 9 -2 6 -5 -3 -3 -12
-3 -21 1 -13 5 -14 9 -4 20 16 18 20 17 13 -1z m304 5 c0 -5 -2 -10 -4 -10 -3
0 -8 5 -11 10 -3 6 -1 10 4 10 6 0 11 -4 11 -10z m-917 -20 c10 -10 6 -11 -18
-5 -16 4 -35 8 -42 8 -7 0 -10 3 -8 7 6 10 55 4 68 -10z m452 10 c3 -5 1 -10
-4 -10 -6 0 -11 5 -11 10 0 6 2 10 4 10 3 0 8 -4 11 -10z m350 -10 c3 -6 0
-17 -9 -25 -18 -19 -23 -19 -23 0 0 8 5 11 10 8 6 -4 8 0 4 10 -7 18 8 24 18
7z m150 0 c-3 -5 -10 -10 -16 -10 -5 0 -9 5 -9 10 0 6 7 10 16 10 8 0 12 -4 9
-10z m-877 -18 c2 -7 -2 -10 -12 -6 -9 3 -16 11 -16 16 0 13 23 5 28 -10z
m559 -18 c-3 -3 -12 -4 -19 -1 -8 3 -5 6 6 6 11 1 17 -2 13 -5z m-484 -21 c-7
-2 -19 -2 -25 0 -7 3 -2 5 12 5 14 0 19 -2 13 -5z"/>
<path d="M1517 890 c10 -11 19 -20 21 -20 1 0 -2 9 -8 20 -6 11 -15 20 -20 20
-6 0 -2 -9 7 -20z"/>
<path d="M1475 890 c-8 -13 12 -40 29 -40 6 0 5 4 -3 9 -7 5 -11 13 -7 19 3 6
2 13 -3 16 -5 4 -13 2 -16 -4z"/>
<path d="M1463 843 c4 -3 1 -13 -6 -22 -11 -14 -10 -14 5 -2 16 12 16 31 1 31
-4 0 -3 -3 0 -7z"/>
<path d="M1516 833 c-6 -14 -5 -15 5 -6 7 7 10 15 7 18 -3 3 -9 -2 -12 -12z"/>
<path d="M1481 801 c-8 -5 -9 -11 -3 -15 5 -3 12 1 16 9 6 17 6 18 -13 6z"/>
<path d="M1450 782 c0 -5 11 -14 25 -20 14 -6 25 -10 25 -8 0 2 -11 11 -25 20
-14 9 -25 13 -25 8z"/>
<path d="M1534 759 c-19 -22 -19 -22 3 -10 24 12 39 31 25 31 -5 0 -17 -10
-28 -21z"/>
<path d="M1740 730 c0 -6 7 -10 15 -10 8 0 15 2 15 4 0 2 -7 6 -15 10 -8 3
-15 1 -15 -4z"/>
<path d="M1534 705 c3 -8 1 -15 -4 -15 -6 0 -10 -5 -10 -12 0 -9 3 -9 12 0 7
7 21 12 32 12 20 0 20 0 0 15 -25 19 -38 19 -30 0z"/>
<path d="M865 930 c-3 -5 -1 -10 4 -10 6 0 11 5 11 10 0 6 -2 10 -4 10 -3 0
-8 -4 -11 -10z"/>
<path d="M796 835 c4 -8 10 -12 15 -9 11 6 2 24 -11 24 -5 0 -7 -7 -4 -15z"/>
<path d="M781 774 c0 -11 3 -14 6 -6 3 7 2 16 -1 19 -3 4 -6 -2 -5 -13z"/>
<path d="M2162 824 c-12 -13 -10 -14 12 -8 20 5 26 2 26 -9 0 -17 18 -32 27
-23 9 8 -26 56 -40 56 -6 -1 -18 -8 -25 -16z"/>
<path d="M1745 590 c-3 -5 -2 -10 4 -10 5 0 13 5 16 10 3 6 2 10 -4 10 -5 0
-13 -4 -16 -10z"/>
<path d="M1778 546 c-21 -16 -24 -36 -5 -36 14 0 47 31 47 43 0 11 -24 7 -42
-7z"/>
<path d="M1019 563 c-13 -16 -12 -17 4 -4 16 13 21 21 13 21 -2 0 -10 -8 -17
-17z"/>
<path d="M1010 2447 c0 -5 -9 -6 -19 -2 -11 3 -22 1 -26 -5 -11 -17 100 -13
115 5 11 14 8 15 -28 13 -23 -2 -42 -7 -42 -11z"/>
<path d="M1490 2445 c0 -8 5 -15 10 -15 6 0 10 7 10 15 0 8 -4 15 -10 15 -5 0
-10 -7 -10 -15z"/>
<path d="M1210 2440 c0 -5 6 -10 14 -10 8 0 18 5 21 10 3 6 -3 10 -14 10 -12
0 -21 -4 -21 -10z"/>
<path d="M2067 2425 c5 -14 33 -28 40 -21 8 8 -6 23 -26 29 -13 3 -18 1 -14
-8z"/>
<path d="M1900 2421 c0 -8 -7 -10 -20 -6 -11 3 -20 2 -20 -3 0 -17 41 -22 47
-6 3 8 3 18 -1 21 -3 4 -6 1 -6 -6z"/>
<path d="M1982 2418 c2 -6 10 -14 16 -16 7 -2 10 2 6 12 -7 18 -28 22 -22 4z"/>
<path d="M2020 2410 c0 -5 5 -10 11 -10 5 0 7 5 4 10 -3 6 -8 10 -11 10 -2 0
-4 -4 -4 -10z"/>
<path d="M827 2383 c-13 -13 -7 -21 13 -16 11 3 20 9 20 14 0 10 -24 12 -33 2z"/>
<path d="M2095 2251 c-7 -12 12 -24 25 -16 11 7 4 25 -10 25 -5 0 -11 -4 -15
-9z"/>
<path d="M2620 1912 c0 -4 10 -13 23 -21 22 -14 22 -14 3 8 -20 22 -26 25 -26
13z"/>
<path d="M2641 1863 c7 -12 15 -20 18 -17 3 2 -3 12 -13 22 -17 16 -18 16 -5
-5z"/>
<path d="M2606 1826 c-15 -36 -15 -41 -1 -55 25 -25 38 -1 28 50 l-10 44 -17
-39z"/>
<path d="M2425 1420 c-8 -13 -1 -24 14 -19 6 3 7 10 2 18 -6 10 -10 10 -16 1z"/>
<path d="M532 1250 c0 -14 2 -19 5 -12 2 6 2 18 0 25 -3 6 -5 1 -5 -13z"/>
<path d="M2506 1018 c-29 -69 -40 -127 -26 -143 8 -10 21 -13 34 -9 21 6 21 6
1 -10 -11 -8 -15 -16 -9 -16 6 0 18 8 28 19 15 16 15 20 1 31 -10 8 -13 21 -9
37 4 16 2 28 -7 34 -11 7 -10 9 4 9 9 0 18 8 18 18 4 58 -16 76 -35 30z"/>
<path d="M1935 980 c-3 -5 -1 -10 4 -10 6 0 11 5 11 10 0 6 -2 10 -4 10 -3 0
-8 -4 -11 -10z"/>
<path d="M1196 962 c-3 -5 1 -9 9 -9 8 0 12 4 9 9 -3 4 -7 8 -9 8 -2 0 -6 -4
-9 -8z"/>
<path d="M1284 923 c36 -39 56 -47 56 -22 0 6 -5 7 -11 3 -6 -3 -27 9 -47 27
l-37 34 39 -42z"/>
<path d="M1823 947 c-3 -6 -1 -7 5 -3 11 7 16 -7 15 -42 -1 -10 2 -10 14 -1 9
8 10 14 3 19 -6 4 -8 13 -5 22 7 17 -22 21 -32 5z"/>
<path d="M590 890 c0 -5 5 -10 11 -10 5 0 7 5 4 10 -3 6 -8 10 -11 10 -2 0 -4
-4 -4 -10z"/>
<path d="M690 870 c6 -11 15 -20 20 -20 14 0 1 28 -16 34 -12 4 -12 2 -4 -14z"/>
<path d="M1337 870 c-9 -11 -13 -20 -9 -20 10 1 42 26 42 34 0 12 -16 6 -33
-14z"/>
<path d="M625 868 c-11 -7 -31 -13 -45 -14 -14 -2 -26 -8 -28 -14 -2 -5 -9 -7
-14 -4 -6 4 -8 3 -5 -3 10 -15 53 -10 49 6 -2 8 3 11 12 8 9 -4 18 -1 22 4 4
7 27 -9 55 -37 41 -41 49 -45 49 -27 0 19 -56 93 -69 93 -3 0 -15 -6 -26 -12z
m56 -29 c13 -26 7 -24 -22 7 -17 19 -19 23 -6 18 10 -3 22 -15 28 -25z"/>
<path d="M2285 830 c3 -5 8 -10 11 -10 2 0 4 5 4 10 0 6 -5 10 -11 10 -5 0 -7
-4 -4 -10z"/>
</g>
</svg>
