<?xml version="1.0" encoding="utf-8"?>
<!-- Generator: Adobe Illustrator 19.2.0, SVG Export Plug-In . SVG Version: 6.00 Build 0)  -->
<svg version="1.1" id="Ebene_1" xmlns="http://www.w3.org/2000/svg" xmlns:xlink="http://www.w3.org/1999/xlink" x="0px" y="0px"
	 viewBox="0 0 62 62" style="enable-background:new 0 0 62 62;" xml:space="preserve">
<style type="text/css">
	.st0{fill:none;enable-background:new    ;}
</style>
<path class="st0" d="z"/>
<g>
	<path d="M24.3,12.3C22.5,13.2,20.7,14,19,15c-6.2,3.7-9.5,9.3-10.5,16.4c-0.9,6.9,1,12.9,6,17.7c5.6,5.2,12.1,6.6,19.3,3.8
		c1.2-0.5,2.3-1.2,3.2-2.1c2.5-2.3,2.3-5.1-0.5-6.8c-1.8-1.1-4-1.6-6.1-2.4c-0.3-0.1-0.6-0.2-1.1-0.3c7.4-7.3,16.1-12.1,26.2-15.1
		c-0.2,2.1-0.1,4.1-0.5,5.9c-1.9,9.4-6.4,17.2-14.6,22.6C26.4,64.1,8.3,55.1,5.5,39.3c-2.2-12.5,5.9-24.4,18.5-27
		C24.1,12.2,24.2,12.3,24.3,12.3z"/>
	<path d="M16.4,35c-3.4-4.1-3.8-8.8-0.8-13.5c2.6-4,6.5-6.4,10.6-8.5c6.1-3.1,12.5-5.2,18.9-7.2c3.3-1,6.5-2,9.8-3
		c0.7-0.2,1.2-0.2,1.2,0.7c0.1,2.2,0.2,4.4,0.2,6.5c0,1.8-0.5,2.4-2.3,2.8c-10.8,2.9-20.9,7.2-29.6,14.3c-2.6,2.1-4.9,4.5-7.3,6.7
		C16.9,34.2,16.7,34.6,16.4,35z"/>
	<path d="M56.5,14.5c0,2.5,0,4.8,0,7c0,2.1-0.6,2.7-2.5,3.3c-10.1,3.1-19.1,7.9-26.6,15.4c-0.5,0.5-1,0.6-1.8,0.5
		c-3-0.6-5.7-1.7-8.1-4.1C28.1,25.2,41.2,18.5,56.5,14.5z"/>
</g>
</svg>
