<?xml version="1.0" standalone="no"?>
<!DOCTYPE svg PUBLIC "-//W3C//DTD SVG 20010904//EN"
 "http://www.w3.org/TR/2001/REC-SVG-20010904/DTD/svg10.dtd">
<svg version="1.0" xmlns="http://www.w3.org/2000/svg"
 width="3925.000000pt" height="3925.000000pt" viewBox="0 0 3925.000000 3925.000000"
 preserveAspectRatio="xMidYMid meet">
<metadata>
Created by potrace 1.11, written by Peter Selinger 2001-2013
</metadata>
<g transform="translate(0.000000,3925.000000) scale(0.100000,-0.100000)"
fill="#000000" stroke="none">
<path d="M19115 37914 c-413 -20 -546 -28 -770 -45 -3808 -293 -7395 -1836
-10225 -4400 -102 -92 -209 -195 -238 -228 -304 -348 -466 -730 -504 -1189
-20 -249 13 -513 98 -771 38 -115 42 -137 30 -150 -915 -1070 -1714 -2307
-2303 -3565 l-102 -219 -523 2 c-431 2 -538 -1 -610 -14 -511 -90 -907 -483
-994 -987 -12 -73 -14 -178 -11 -610 3 -480 5 -529 23 -598 l19 -75 -195 -97
c-600 -298 -1084 -705 -1497 -1262 -895 -1205 -1343 -3070 -1310 -5451 14
-1012 100 -1825 273 -2604 585 -2623 2077 -4023 4447 -4172 l197 -13 35 -61
c205 -368 596 -642 1028 -722 126 -23 398 -23 524 0 298 55 573 199 792 416
52 52 97 89 99 83 7 -21 293 -434 426 -615 701 -957 1531 -1843 2421 -2587
2391 -1997 5236 -3162 8315 -3404 414 -33 621 -40 1155 -40 647 0 995 17 1585
80 2326 246 4581 1060 6540 2359 l175 116 1005 -195 c553 -108 1064 -205 1135
-216 484 -74 1013 -72 1488 6 1357 221 2647 1042 3858 2454 910 1061 1791
2505 2544 4170 49 107 126 259 172 338 517 885 837 2004 968 3387 98 1037 81
2260 -46 3265 -104 828 -282 1552 -541 2200 -88 221 -280 612 -390 795 -442
737 -987 1264 -1686 1633 -107 56 -123 68 -119 86 3 11 14 55 25 96 11 41 25
116 31 165 14 114 14 878 1 1000 -30 265 -152 522 -334 708 -192 194 -402 305
-671 352 -75 13 -175 16 -609 14 l-520 -1 -101 213 c-590 1248 -1297 2359
-2154 3389 -80 96 -154 185 -165 198 -18 23 -18 25 18 134 178 537 119 1129
-160 1614 -156 271 -285 408 -824 872 -2753 2369 -6183 3800 -9820 4097 -463
38 -692 46 -1310 49 -344 2 -656 2 -695 0z m4569 -8163 c257 -706 466 -1284
464 -1286 -3 -1 -254 42 -688 119 -80 15 -311 55 -515 91 -203 35 -395 69
-425 75 -73 13 -375 66 -740 130 -162 28 -303 54 -313 58 -16 6 121 175 860
1059 483 578 881 1048 884 1044 3 -3 216 -584 473 -1290z m-14669 206 c99 -18
158 -22 340 -22 l220 0 -255 -255 c-848 -847 -1545 -1730 -2172 -2750 -102
-165 -293 -496 -373 -645 -27 -49 -49 -91 -50 -92 -1 -2 -32 6 -71 17 -38 11
-109 26 -158 35 -49 8 -91 17 -93 19 -2 2 34 92 81 199 544 1258 1247 2401
2140 3479 l78 95 97 -29 c53 -16 150 -39 216 -51z m21758 21 c186 -214 556
-698 790 -1034 549 -787 1061 -1717 1421 -2576 l45 -107 -47 -6 c-26 -4 -99
-19 -162 -34 -63 -16 -116 -28 -116 -27 -1 0 -48 84 -104 186 -567 1020 -1254
1972 -2049 2840 -58 63 -239 250 -403 415 l-297 300 141 -4 c218 -5 426 22
623 83 44 13 85 24 92 25 6 1 36 -27 66 -61z m-2224 -188 c48 -41 68 -65 65
-77 -2 -10 -175 -985 -384 -2168 -209 -1182 -383 -2157 -387 -2166 -7 -13
-132 7 -973 157 -531 95 -996 178 -1033 184 -78 14 -73 7 -112 155 -30 114
-52 268 -65 463 l-10 152 594 708 c326 389 640 764 697 834 251 306 1525 1817
1531 1818 4 0 39 -27 77 -60z m-17395 -769 c152 -415 277 -756 280 -758 2 -2
533 -97 1180 -212 647 -114 1179 -210 1181 -213 6 -5 -20 -435 -31 -515 -4
-38 -69 -118 -684 -854 -374 -447 -680 -815 -680 -819 0 -3 33 -12 73 -18 178
-29 991 -173 995 -177 3 -2 -14 -46 -36 -97 -22 -51 -109 -262 -192 -468 -210
-519 -488 -1198 -637 -1555 -638 -1533 -1194 -2829 -1263 -2945 -132 -224
-301 -384 -899 -850 -154 -119 -281 -229 -281 -242 0 -4 90 -8 201 -8 124 0
208 -4 221 -11 42 -23 49 -65 38 -241 -5 -90 -10 -214 -10 -275 0 -101 -2
-113 -17 -113 -10 0 -204 33 -430 73 -227 40 -414 70 -415 67 -2 -5 -1475 253
-1975 345 l-33 6 0 2358 0 2357 60 72 60 71 -59 163 -59 163 -5 320 c-4 271
-9 335 -26 419 -36 172 -99 339 -177 467 l-36 60 132 242 c771 1415 1820 2723
3025 3772 82 72 163 142 179 157 17 15 34 24 38 20 3 -4 130 -346 282 -761z
m13479 -1862 c258 -710 466 -1293 464 -1295 -6 -7 -2690 467 -2700 476 -9 8
1747 2110 1761 2110 4 0 218 -581 475 -1291z m-10473 602 c-16 -32 -30 -34
-30 -7 0 19 5 26 20 26 17 0 19 -3 10 -19z m613 -2530 c186 -33 340 -61 341
-63 2 -1 216 -588 475 -1303 260 -715 476 -1303 479 -1306 4 -4 619 -115 1367
-248 747 -133 1361 -244 1363 -246 2 -2 -16 -115 -40 -252 l-44 -248 -280 -6
c-153 -4 -303 -7 -331 -8 l-53 -1 -1 -437 c0 -312 -4 -448 -12 -473 -8 -21
-25 -42 -47 -55 -33 -19 -54 -20 -467 -25 -398 -5 -434 -6 -450 -23 -17 -16
-18 -54 -23 -488 l-5 -470 -130 97 c-341 256 -518 446 -619 665 -83 180 -956
2482 -1657 4366 -116 313 -213 571 -216 576 -6 10 -17 12 350 -52z m16282
-1649 c256 -706 465 -1286 462 -1288 -2 -3 -501 83 -1108 190 -607 107 -1215
213 -1351 237 -137 23 -248 45 -248 48 0 6 544 657 1387 1664 207 246 379 444
383 440 4 -4 218 -585 475 -1291z m-13728 1192 c-3 -3 -12 -4 -19 -1 -8 3 -5
6 6 6 11 1 17 -2 13 -5z m110 -20 c-3 -3 -12 -4 -19 -1 -8 3 -5 6 6 6 11 1 17
-2 13 -5z m60 -10 c-3 -3 -12 -4 -19 -1 -8 3 -5 6 6 6 11 1 17 -2 13 -5z m50
-10 c-3 -3 -12 -4 -19 -1 -8 3 -5 6 6 6 11 1 17 -2 13 -5z m60 -10 c-3 -3 -12
-4 -19 -1 -8 3 -5 6 6 6 11 1 17 -2 13 -5z m60 -10 c-3 -3 -12 -4 -19 -1 -8 3
-5 6 6 6 11 1 17 -2 13 -5z m50 -10 c-3 -3 -12 -4 -19 -1 -8 3 -5 6 6 6 11 1
17 -2 13 -5z m60 -10 c-3 -3 -12 -4 -19 -1 -8 3 -5 6 6 6 11 1 17 -2 13 -5z
m56 -11 c-7 -2 -19 -2 -25 0 -7 3 -2 5 12 5 14 0 19 -2 13 -5z m1947 -3058
c34 -18 56 -43 77 -90 14 -35 17 -85 21 -370 2 -181 0 -355 -5 -385 l-8 -55
-60 -7 c-122 -15 -238 -12 -272 5 -54 29 -58 54 -58 422 0 365 4 391 65 450
53 51 171 66 240 30z m-1359 -1371 c36 -18 75 -66 91 -111 15 -44 15 -139 2
-558 -12 -380 -1 -363 -217 -351 -136 8 -163 18 -196 76 -20 36 -21 52 -21
281 1 309 12 491 35 547 22 54 94 118 148 131 49 11 121 5 158 -15z m1371 -6
c41 -20 78 -70 99 -133 19 -56 20 -799 1 -832 -18 -33 -71 -43 -223 -43 -154
0 -192 9 -209 49 -8 19 -10 142 -8 417 l3 389 28 58 c57 115 190 156 309 95z
m1358 2 c45 -23 64 -44 92 -105 23 -49 23 -56 23 -416 l0 -365 -27 -42 c-41
-61 -68 -71 -215 -78 -152 -8 -183 1 -205 63 -18 53 -19 739 -1 799 17 55 65
119 105 141 65 34 163 35 228 3z m-8820 -1496 c57 -31 82 -61 107 -126 14 -37
17 -115 21 -575 l4 -533 -303 0 -302 0 6 503 c7 541 11 578 62 655 53 79 141
114 271 108 66 -3 92 -9 134 -32z m1451 0 c70 -38 105 -94 119 -189 5 -39 10
-286 10 -557 l0 -488 -300 0 -300 0 1 273 c0 149 4 387 8 527 7 233 9 259 30
305 54 121 140 167 298 161 66 -3 91 -9 134 -32z m1471 3 c31 -18 57 -44 75
-75 l28 -47 3 -557 3 -558 -286 0 -286 0 3 548 c3 543 3 547 25 589 12 22 39
55 60 72 60 49 104 61 223 58 94 -2 110 -5 152 -30z m8992 -1 c30 -15 65 -40
76 -56 49 -69 50 -77 50 -646 l0 -534 -297 0 -296 0 6 503 c7 544 11 583 64
660 51 73 141 109 264 104 59 -3 90 -10 133 -31z m1456 -2 c57 -31 82 -61 107
-126 14 -37 17 -115 21 -575 l4 -533 -303 0 -302 0 6 503 c7 541 11 578 62
655 53 79 141 114 271 108 66 -3 92 -9 134 -32z m1475 1 c35 -21 56 -45 74
-80 l26 -49 3 -553 2 -553 -283 0 -284 0 -6 298 c-9 408 0 754 20 811 26 72
84 126 163 152 14 5 73 7 131 6 98 -2 109 -4 154 -32z m-9054 -432 c56 -30 89
-67 115 -129 23 -53 35 -420 27 -789 -6 -302 -6 -301 -63 -330 -26 -13 -185
-20 -393 -17 l-118 2 3 543 c3 413 6 549 16 572 36 82 102 144 187 172 63 20
165 10 226 -24z m1670 10 c56 -25 103 -72 135 -136 38 -74 46 -194 42 -646 -3
-439 -1 -427 -70 -469 -38 -23 -184 -44 -323 -45 -173 -2 -201 34 -217 276
-11 169 5 731 24 802 30 117 107 200 218 236 40 13 142 3 191 -18z m1678 11
c69 -20 121 -69 157 -146 l29 -63 5 -490 c3 -315 2 -502 -5 -525 -15 -51 -48
-63 -191 -68 -137 -5 -276 10 -312 34 -13 9 -33 37 -45 62 -21 45 -22 64 -25
448 -5 513 4 574 94 673 75 84 177 110 293 75z m-3353 -2344 c52 -26 105 -84
124 -137 10 -29 14 -156 17 -551 l5 -512 -31 -29 c-38 -35 -85 -41 -347 -41
l-194 0 0 503 c0 278 4 529 10 562 16 100 93 188 193 221 57 19 167 11 223
-16z m1691 2 c79 -41 132 -120 152 -227 7 -37 11 -230 11 -520 0 -509 2 -493
-64 -515 -19 -6 -114 -12 -212 -13 -316 -4 -313 -9 -314 608 0 198 4 386 10
418 22 140 102 238 215 268 48 13 159 2 202 -19z m1660 13 c66 -20 134 -80
164 -147 l24 -53 3 -544 3 -543 -251 3 -252 4 -33 36 -33 36 -7 209 c-11 288
0 745 19 808 47 155 205 238 363 191z m13987 -4437 c-32 -63 -213 -377 -300
-519 -842 -1385 -1760 -2327 -2729 -2799 -371 -181 -724 -290 -1115 -345 -69
-10 -219 -19 -375 -22 -381 -7 -445 1 -1257 158 -181 35 -328 66 -327 69 0 3
67 63 147 134 870 763 1698 1706 2397 2727 l141 206 105 -101 c216 -209 451
-334 749 -397 151 -32 429 -32 580 0 422 90 777 341 989 699 l52 88 152 13
c218 17 431 47 613 85 210 44 198 44 178 4z"/>
</g>
</svg>
