<?xml version="1.0" standalone="no"?>
<!DOCTYPE svg PUBLIC "-//W3C//DTD SVG 20010904//EN"
 "http://www.w3.org/TR/2001/REC-SVG-20010904/DTD/svg10.dtd">
<svg version="1.0" xmlns="http://www.w3.org/2000/svg"
 width="567.000000pt" height="567.000000pt" viewBox="0 0 567.000000 567.000000"
 preserveAspectRatio="xMidYMid meet">
<metadata>
Created by potrace 1.11, written by Peter Selinger 2001-2013
</metadata>
<g transform="translate(0.000000,567.000000) scale(0.100000,-0.100000)"
fill="#000000" stroke="none">
<path d="M635 5325 c-123 -30 -227 -116 -275 -231 l-25 -59 -2 -2171 c-2
-2282 -3 -2224 41 -2316 40 -83 142 -168 238 -200 43 -14 4328 -20 4408 -6
105 18 233 111 273 199 45 98 43 11 42 2314 l-1 2180 -31 65 c-56 120 -149
198 -271 226 -77 18 -4323 17 -4397 -1z"/>
</g>
</svg>
